<svg id="insta" xmlns="http://www.w3.org/2000/svg" width="40.469" height="41" viewBox="0 0 40.469 41">
  <defs>
    <style>
      .cls-1 {
        fill: #85d638;
      }

      .cls-2 {
        fill: #f5f5f5;
        fill-rule: evenodd;
      }
    </style>
  </defs>
  <rect id="Prostokąt_5_kopia" data-name="Prostokąt 5 kopia" class="cls-1" width="40.469" height="41" rx="10" ry="10"/>
  <path id="Kształt_3" data-name="Kształt 3" class="cls-2" d="M785.921,722.709a8.137,8.137,0,0,0-8.169-8.121c-1.59-.04-3.181-0.007-4.772-0.006-1.625,0-3.25-.036-4.874.006a8.166,8.166,0,0,0-8.17,8.233c-0.076,3.3-.07,6.6,0,9.893a8.146,8.146,0,0,0,8.13,8.267q4.872,0.108,9.749,0a8.1,8.1,0,0,0,8.105-8.07C786.028,729.513,786.022,726.106,785.921,722.709Zm-2.427,9.875a5.713,5.713,0,0,1-5.86,5.923c-3.151.035-6.3,0.04-9.451,0a5.719,5.719,0,0,1-5.812-5.869c-0.033-1.615,0-3.231,0-4.848,0-1.581-.021-3.163,0-4.744a5.74,5.74,0,0,1,5.916-5.976q4.674-.043,9.35,0a5.713,5.713,0,0,1,5.86,5.923Q783.553,727.789,783.494,732.584ZM772.92,721.19a6.6,6.6,0,1,0,6.516,6.636A6.6,6.6,0,0,0,772.92,721.19Zm-0.014,10.715a4.117,4.117,0,1,1,4.082-4.012A4.119,4.119,0,0,1,772.906,731.905Zm7.108-12.045c-0.008-.009-0.018-0.018-0.026-0.028l-0.024.022-0.025,0a1.013,1.013,0,0,0-.041,2.025,0.243,0.243,0,0,1,.014.02l0.016-.02A1.011,1.011,0,0,0,780.014,719.86Z" transform="translate(-753 -707)"/>
</svg>
