<svg xmlns="http://www.w3.org/2000/svg" width="629.188" height="59.812" viewBox="0 0 629.188 59.812">
  <defs>
    <style>
      .cls-2 {
        fill: #85d638;
        fill-rule: evenodd;
      }
    </style>
  </defs>
  <path id="LOGO" class="cls-2" d="M521.594,180.33q-0.137-2.223-.365-4.249c-0.159-1.349-.322-2.525-0.5-3.529H518l-4.45,11.7H500.725V147.131a21.1,21.1,0,0,0,3.293-.688,17.092,17.092,0,0,0,3.087-1.208v-2.484H485.312v2.484a14.536,14.536,0,0,0,5.449,1.9v36.987a16.611,16.611,0,0,0-2.56.655,20.993,20.993,0,0,0-2.889,1.241V188.5H521.79q0.072-1.632,0-3.791C521.748,183.269,521.679,181.81,521.594,180.33Zm36.05-20.489a14.733,14.733,0,0,0-5.518-3.53,22.58,22.58,0,0,0-8-1.273,21.6,21.6,0,0,0-7.375,1.176,15.308,15.308,0,0,0-5.549,3.4A14.868,14.868,0,0,0,527.673,165a19.673,19.673,0,0,0-1.231,7.156,21.6,21.6,0,0,0,1.064,6.894,14.121,14.121,0,0,0,3.258,5.425,15.111,15.111,0,0,0,5.514,3.53,24.357,24.357,0,0,0,15.252.1,15.308,15.308,0,0,0,5.582-3.4,14.532,14.532,0,0,0,3.486-5.391,20.135,20.135,0,0,0,1.2-7.156,22.861,22.861,0,0,0-1-6.9A13.66,13.66,0,0,0,557.644,159.841Zm-6.582,18.494a12.743,12.743,0,0,1-1.294,4.053,5.652,5.652,0,0,1-2.059,2.222,5.24,5.24,0,0,1-2.658.685,7.977,7.977,0,0,1-4.12-.946,6.827,6.827,0,0,1-2.526-2.649,12.407,12.407,0,0,1-1.295-4.149,36.64,36.64,0,0,1-.364-5.391,37.326,37.326,0,0,1,.429-6.176,12.63,12.63,0,0,1,1.3-4.052,5.477,5.477,0,0,1,2.126-2.222,6.156,6.156,0,0,1,2.989-.686,7.222,7.222,0,0,1,3.854.947,6.732,6.732,0,0,1,2.423,2.648,12.866,12.866,0,0,1,1.265,4.116A42.468,42.468,0,0,1,551.062,178.335Zm38.109-20.029a11.774,11.774,0,0,0,1.694.917,12.028,12.028,0,0,0,1.964.655l-5.652,16.712-1.063,4.457h-0.133l-1.26-4.39-6.179-16.779a13.355,13.355,0,0,0,2.023-.753q0.9-.426,1.763-0.885v-2.418H564.852v2.484a19.918,19.918,0,0,0,3.52,1.57l13.292,29.406,4.917-.786,11.628-28.62a19.133,19.133,0,0,0,2.162-.719,8.552,8.552,0,0,0,1.624-.851v-2.484H589.171v2.484Zm43.953,0.653a11.1,11.1,0,0,0-4.918-3.006,21.338,21.338,0,0,0-6.345-.915q-7.9,0-12.358,4.379t-4.455,12.743a21.362,21.362,0,0,0,1.1,7.059,14.948,14.948,0,0,0,3.224,5.391,13.994,13.994,0,0,0,5.317,3.464,20.547,20.547,0,0,0,7.306,1.208,19.832,19.832,0,0,0,4.819-.556,17.73,17.73,0,0,0,3.92-1.436,11.841,11.841,0,0,0,2.859-2.026,8.324,8.324,0,0,0,1.694-2.256l-1.26-1.308a10.471,10.471,0,0,1-3.692,1.7,16.983,16.983,0,0,1-4.55.654q-5.118,0-7.743-3.073a12.5,12.5,0,0,1-2.689-8.233h20.4a21.513,21.513,0,0,0,.1-8.3A11.539,11.539,0,0,0,633.124,158.959Zm-6.942,10.39H615.549a34.2,34.2,0,0,1,.66-5.195,10.59,10.59,0,0,1,1.222-3.268,4.162,4.162,0,0,1,1.784-1.665,5.669,5.669,0,0,1,2.345-.458,3.974,3.974,0,0,1,4.03,2.745A18.121,18.121,0,0,1,626.182,169.349Zm90.119-.428a29.09,29.09,0,0,0-.664-6.81,10.592,10.592,0,0,0-1.959-4.257,6.82,6.82,0,0,0-3.191-2.2,13.982,13.982,0,0,0-4.352-.621,10.56,10.56,0,0,0-6.779,2.221,12.164,12.164,0,0,0-3.987,5.818,11.487,11.487,0,0,0-1.329-4.053,7.527,7.527,0,0,0-2.225-2.452,7.923,7.923,0,0,0-2.822-1.208,14.981,14.981,0,0,0-3.126-.326,10.038,10.038,0,0,0-6.478,2.156,11.4,11.4,0,0,0-3.752,5.229h-0.069v-7.385h-2.259c-0.707.088-1.582,0.195-2.624,0.326s-2.118.295-3.224,0.491-2.183.424-3.22,0.686a17.806,17.806,0,0,0-2.628.849v2.484L666,160.4v24.038q-1.2.331-2.324,0.724a18.242,18.242,0,0,0-2.062.853V188.5h17.278v-2.484a11.589,11.589,0,0,0-3.323-1.572V166.1a9.681,9.681,0,0,1,2.294-4.226,4.977,4.977,0,0,1,3.688-1.6,4.247,4.247,0,0,1,2.393.622,4.114,4.114,0,0,1,1.461,1.965,12.055,12.055,0,0,1,.7,3.441q0.168,2.1.167,5.111v13.037a12.547,12.547,0,0,0-1.826.754c-0.553.283-1.055,0.557-1.5,0.818V188.5h16.615v-2.484a17.97,17.97,0,0,0-1.694-.852,16.94,16.94,0,0,0-2.028-.72v-17.69a11.958,11.958,0,0,1,2.028-4.717,4.471,4.471,0,0,1,3.752-1.769q3.191,0,4.155,2.423a21.791,21.791,0,0,1,.965,7.535v14.218a14.475,14.475,0,0,0-3.323,1.572V188.5h17.274v-2.484a13.972,13.972,0,0,0-4.386-1.571V168.921Zm36.978-9.962a11.106,11.106,0,0,0-4.919-3.006,21.34,21.34,0,0,0-6.346-.915q-7.9,0-12.356,4.379T725.2,172.16a21.389,21.389,0,0,0,1.1,7.059,14.936,14.936,0,0,0,3.225,5.391,13.982,13.982,0,0,0,5.316,3.464,20.547,20.547,0,0,0,7.306,1.208,19.846,19.846,0,0,0,4.82-.556,17.712,17.712,0,0,0,3.918-1.436,11.828,11.828,0,0,0,2.86-2.026,8.324,8.324,0,0,0,1.694-2.256l-1.26-1.308a10.471,10.471,0,0,1-3.692,1.7,16.976,16.976,0,0,1-4.549.654q-5.12,0-7.744-3.073a12.5,12.5,0,0,1-2.688-8.233h20.4a21.53,21.53,0,0,0,.1-8.3A11.547,11.547,0,0,0,753.279,158.959Zm-6.943,10.39H735.7a34.326,34.326,0,0,1,.66-5.195,10.564,10.564,0,0,1,1.223-3.268,4.154,4.154,0,0,1,1.783-1.665,5.669,5.669,0,0,1,2.345-.458,3.976,3.976,0,0,1,4.031,2.745A18.14,18.14,0,0,1,746.336,169.349Zm66.631-9.508a14.741,14.741,0,0,0-5.518-3.53,22.586,22.586,0,0,0-8.006-1.273,21.6,21.6,0,0,0-7.374,1.176,15.308,15.308,0,0,0-5.549,3.4A14.868,14.868,0,0,0,783,165a19.674,19.674,0,0,0-1.23,7.156,21.572,21.572,0,0,0,1.063,6.894,14.1,14.1,0,0,0,3.259,5.425,15.09,15.09,0,0,0,5.513,3.53,24.357,24.357,0,0,0,15.252.1,15.308,15.308,0,0,0,5.582-3.4,14.544,14.544,0,0,0,3.486-5.391,20.157,20.157,0,0,0,1.2-7.156,22.893,22.893,0,0,0-.994-6.9A13.674,13.674,0,0,0,812.967,159.841Zm-6.582,18.494a12.743,12.743,0,0,1-1.294,4.053,5.652,5.652,0,0,1-2.059,2.222,5.245,5.245,0,0,1-2.658.685,7.977,7.977,0,0,1-4.12-.946,6.827,6.827,0,0,1-2.526-2.649,12.407,12.407,0,0,1-1.295-4.149,36.64,36.64,0,0,1-.364-5.391,37.448,37.448,0,0,1,.428-6.176,12.655,12.655,0,0,1,1.3-4.052,5.479,5.479,0,0,1,2.127-2.222,6.153,6.153,0,0,1,2.989-.686,7.222,7.222,0,0,1,3.854.947,6.732,6.732,0,0,1,2.423,2.648,12.917,12.917,0,0,1,1.265,4.116,36.511,36.511,0,0,1,.364,5.425A36.908,36.908,0,0,1,806.385,178.335Zm40.7-23.3a7.362,7.362,0,0,0-3.456.718,11.835,11.835,0,0,0-3.057,2.092,15.86,15.86,0,0,0-2.427,2.876,15.051,15.051,0,0,0-1.56,3.006h-0.266v-8.692h-2.26c-0.708.088-1.582,0.195-2.624,0.326s-2.118.295-3.225,0.491-2.182.424-3.219,0.686a17.9,17.9,0,0,0-2.629.849v2.484l4.386,0.525v24.038q-1.061.265-2.126,0.593a12.421,12.421,0,0,0-2.26.984V188.5h19.273v-2.484a12.536,12.536,0,0,0-2.658-1.081,16.32,16.32,0,0,0-2.658-.491v-16.78a7.977,7.977,0,0,1,1.925-3.015,9.368,9.368,0,0,1,1.861-1.309h9.107v-2.549q-0.335-1.5-.866-3.171A8.215,8.215,0,0,0,847.088,155.038Zm61.124,3.887a9.85,9.85,0,0,0-3.987-2.941,14.11,14.11,0,0,0-5.283-.946,10,10,0,0,0-6.744,2.091,12.182,12.182,0,0,0-3.554,5.229h-0.069v-7.32h-2.26c-0.707.088-1.582,0.195-2.624,0.326s-2.118.295-3.224,0.491-2.182.424-3.22,0.686a17.846,17.846,0,0,0-2.628.849v2.484l4.386,0.525v37.113a24.408,24.408,0,0,0-4.386,1.572v2.484h18.342v-2.484A11.783,11.783,0,0,0,890.7,198a10.777,10.777,0,0,0-2.127-.494v-9.532a12.548,12.548,0,0,0,2.757,1.012,16.838,16.838,0,0,0,3.554.3,18.685,18.685,0,0,0,7.01-1.241,14.551,14.551,0,0,0,5.253-3.53,15.568,15.568,0,0,0,3.323-5.619,22.6,22.6,0,0,0,1.162-7.451,27.014,27.014,0,0,0-.9-7.417A14.256,14.256,0,0,0,908.212,158.925Zm-8.673,23.037a5.886,5.886,0,0,1-5.583,3.595,11.12,11.12,0,0,1-3.121-.359,7.361,7.361,0,0,1-2.26-1.144V166.67a8.875,8.875,0,0,1,2.491-4.835,5.874,5.874,0,0,1,4.022-1.569,4.933,4.933,0,0,1,4.883,2.908,20.007,20.007,0,0,1,1.364,8.267Q901.335,178.371,899.539,181.962Zm47.078-.458c-0.026-.7-0.034-1.524-0.034-2.481q0-3.334.167-6.5c0.107-2.113.167-4.476,0.167-7.09a15.039,15.039,0,0,0-.532-4.051,7.655,7.655,0,0,0-1.895-3.3,9.321,9.321,0,0,0-3.756-2.221,19.441,19.441,0,0,0-6.178-.817,35.214,35.214,0,0,0-8.438.98A20.325,20.325,0,0,0,919.6,158.7a17.234,17.234,0,0,0,.434,2.288,21.253,21.253,0,0,0,.729,2.319c0.287,0.764.6,1.483,0.93,2.158a15,15,0,0,0,1.029,1.8h2.924l3.126-7.841a10.58,10.58,0,0,1,3.786-.654q3.318,0,4.318,2.614t0.467,8.234a91.072,91.072,0,0,0-9.27.849,21.508,21.508,0,0,0-6.247,1.8,8.273,8.273,0,0,0-3.554,3.106,9.311,9.311,0,0,0-1.133,4.836,8.612,8.612,0,0,0,.8,3.758,8.455,8.455,0,0,0,2.195,2.842,10.261,10.261,0,0,0,3.255,1.829,12.177,12.177,0,0,0,4.055.654,11.116,11.116,0,0,0,3.722-.588,10.469,10.469,0,0,0,2.891-1.535A8.936,8.936,0,0,0,936.082,185a8.269,8.269,0,0,0,1.132-2.518h0.33c0.047,1.439.112,2.659,0.2,3.661a9.324,9.324,0,0,0,.8,3.007h2.26c0.75-.089,1.616-0.207,2.59-0.361s1.959-.348,2.958-0.586,1.947-.491,2.856-0.753a13.525,13.525,0,0,0,2.16-.784V184.38l-4.583-.653Q946.649,182.55,946.617,181.5Zm-9.27-2.285a14.807,14.807,0,0,1-.566,1.5,5.162,5.162,0,0,1-1.064,1.569,6.525,6.525,0,0,1-1.693,1.242,5.086,5.086,0,0,1-2.392.523,4.172,4.172,0,0,1-3.323-1.373,5.676,5.676,0,0,1-1.2-3.855,7.9,7.9,0,0,1,.433-2.779,3.914,3.914,0,0,1,1.56-1.9,8.072,8.072,0,0,1,3.121-1.077,37.805,37.805,0,0,1,5.12-.392v6.536Zm39.935-20.913a9.371,9.371,0,0,0,3.658,1.572l-5.184,16.387-1.064,4.259H974.56l-1.132-4.194-6.711-16.452a14.671,14.671,0,0,0,3.791-1.638v-2.418H953.031v2.484a18.559,18.559,0,0,0,1.694.917,10.422,10.422,0,0,0,1.827.653L970.636,188.5a30.76,30.76,0,0,1-1.029,3.137,11.814,11.814,0,0,1-1.029,1.961h-8.107l-0.863,1.569a11.273,11.273,0,0,0,.331,1.958,17.221,17.221,0,0,0,.664,2.061,12.445,12.445,0,0,0,.931,1.9,6.309,6.309,0,0,0,1.2,1.47,13.276,13.276,0,0,0,3.19-.816,9.67,9.67,0,0,0,3.19-2.192,21.417,21.417,0,0,0,3.19-4.213,43.551,43.551,0,0,0,3.19-6.83l10.83-28.622a13.4,13.4,0,0,0,3.787-1.57v-2.484H977.282v2.484Zm97.138,10.615a29.223,29.223,0,0,0-.66-6.81,10.647,10.647,0,0,0-1.96-4.257,6.827,6.827,0,0,0-3.19-2.2,14.005,14.005,0,0,0-4.35-.621,10.555,10.555,0,0,0-6.78,2.221,12.183,12.183,0,0,0-3.99,5.818,11.608,11.608,0,0,0-1.33-4.053,7.6,7.6,0,0,0-2.22-2.452,8,8,0,0,0-2.83-1.208,14.952,14.952,0,0,0-3.12-.326,10.04,10.04,0,0,0-6.48,2.156,11.426,11.426,0,0,0-3.75,5.229h-0.07v-7.385h-2.26c-0.71.088-1.58,0.195-2.62,0.326s-2.12.295-3.23,0.491-2.18.424-3.22,0.686a17.918,17.918,0,0,0-2.63.849v2.484l4.39,0.525v24.038c-0.8.221-1.57,0.462-2.32,0.724a17.939,17.939,0,0,0-2.07.853V188.5h17.28v-2.484a11.534,11.534,0,0,0-3.32-1.572V166.1a9.7,9.7,0,0,1,2.29-4.226,4.983,4.983,0,0,1,3.69-1.6,4.239,4.239,0,0,1,2.39.622,4.133,4.133,0,0,1,1.47,1.965,12.244,12.244,0,0,1,.69,3.441c0.11,1.4.17,3.1,0.17,5.111v13.037a12.241,12.241,0,0,0-1.83.754c-0.55.283-1.05,0.557-1.5,0.818V188.5h16.62v-2.484a17.5,17.5,0,0,0-1.7-.852,16.854,16.854,0,0,0-2.02-.72v-17.69a12.043,12.043,0,0,1,2.02-4.717,4.486,4.486,0,0,1,3.76-1.769c2.12,0,3.51.808,4.15,2.423a21.841,21.841,0,0,1,.97,7.535v14.218a14.546,14.546,0,0,0-3.33,1.572V188.5h17.28v-2.484a13.958,13.958,0,0,0-4.39-1.571V168.921Zm39.71-4.474a11.524,11.524,0,0,0-2.73-5.488,11.021,11.021,0,0,0-4.92-3.006,21.262,21.262,0,0,0-6.34-.915q-7.905,0-12.36,4.379t-4.45,12.743a21.6,21.6,0,0,0,1.09,7.059,15.045,15.045,0,0,0,3.23,5.391,13.936,13.936,0,0,0,5.32,3.464,20.5,20.5,0,0,0,7.3,1.208,19.811,19.811,0,0,0,4.82-.556,17.656,17.656,0,0,0,3.92-1.436,11.967,11.967,0,0,0,2.86-2.026,8.22,8.22,0,0,0,1.69-2.256l-1.26-1.308a10.334,10.334,0,0,1-3.69,1.7,17,17,0,0,1-4.55.654q-5.115,0-7.74-3.073a12.477,12.477,0,0,1-2.69-8.233h20.4A21.339,21.339,0,0,0,1114.13,164.447Zm-9.67,4.9h-10.63a33.7,33.7,0,0,1,.66-5.195,10.517,10.517,0,0,1,1.22-3.268,4.187,4.187,0,0,1,1.78-1.665,5.729,5.729,0,0,1,2.35-.458,3.977,3.977,0,0,1,4.03,2.745A18.173,18.173,0,0,1,1104.46,169.349Z" transform="translate(-485.312 -142.75)"/>
</svg>
