<svg id="TT" xmlns="http://www.w3.org/2000/svg" width="39.594" height="40.124" viewBox="0 0 39.594 40.124">
  <defs>
    <style>
      .cls-1 {
        fill: #85d638;
      }

      .cls-1, .cls-2 {
        fill-rule: evenodd;
      }

      .cls-2 {
        fill: #f5f5f5;
      }
    </style>
  </defs>
  <path id="Prostokąt_5" data-name="Prostokąt 5" class="cls-1" d="M816.392,707.434h19.617a10,10,0,0,1,10,10v20.132a10,10,0,0,1-10,10H816.392a10,10,0,0,1-10-10V717.434A10,10,0,0,1,816.392,707.434Z" transform="translate(-806.406 -707.438)"/>
  <path id="Kształt_2" data-name="Kształt 2" class="cls-2" d="M838.08,719.98l-2.188.565,1.767-2.422-0.219-.171c-0.537.222-1.08,0.433-1.61,0.671a2.065,2.065,0,0,1-2.284-.293,5.026,5.026,0,0,0-7.889,3.664,16.664,16.664,0,0,0-.008,1.679,14.805,14.805,0,0,1-10.519-5.289,5.643,5.643,0,0,0,1.1,6.726l-1.828-.45c0.147,2.5,1.469,4.057,3.938,5.023l-2.1.134a5.4,5.4,0,0,0,4.577,3.533,10.709,10.709,0,0,1-7.125,2.108,14.252,14.252,0,0,0,10.594,1.952,14.5,14.5,0,0,0,11.552-14.064,1.788,1.788,0,0,1,.684-1.489,23.4,23.4,0,0,0,1.69-1.743Z" transform="translate(-806.406 -707.438)"/>
</svg>
